<svg width="800" height="240" viewBox="0 0 800 240" xmlns="http://www.w3.org/2000/svg">
  <defs>
    <filter id="carShadow" x="-50%" y="-50%" width="200%" height="200%">
      <feGaussianBlur in="SourceAlpha" stdDeviation="3" result="blur"/>
      <feOffset in="blur" dx="2" dy="5" result="offsetBlur"/>
      <feComponentTransfer in="offsetBlur">
          <feFuncA type="linear" slope="0.3"/> 
      </feComponentTransfer>
      <feMerge>
        <feMergeNode in="offsetBlur"/>
        <feMergeNode in="SourceGraphic"/>
      </feMerge>
    </filter>
  </defs>

  <style>
    .exhaust-card {
      fill: #FFFDF2;
      stroke: #FEF3C7;
      stroke-width: 1.4;
    }

    .exhaust-message {
      fill: #27272A;
      font-family: Georgia, serif;
      font-size: 20px;
      font-weight: 700;
    }

    .exhaust-puff {
      fill: #FFF7D6;
      opacity: 0.32;
    }

    .exhaust-puff:nth-child(2) {
      opacity: 0.56;
    }

    .exhaust-puff:nth-child(3) {
      opacity: 0.42;
    }
  </style>

  <rect x="0" y="20" width="800" height="200" fill="#FFFFFF" />
  
  <line x1="0" y1="86" x2="800" y2="86" stroke="#555" stroke-width="2" stroke-dasharray="15, 20" opacity="0.6"/>
  <line x1="0" y1="154" x2="800" y2="154" stroke="#555" stroke-width="2" stroke-dasharray="15, 20" opacity="0.6"/>
  <line x1="0" y1="20" x2="800" y2="20" stroke="#555" stroke-width="4"/>
  <line x1="0" y1="220" x2="800" y2="220" stroke="#555" stroke-width="4"/>

  <g id="autonomous-car-group" filter="url(#carShadow)">
      <animateTransform
        attributeName="transform"
        type="translate"
        values="-160 0; 50 0; 180 -50; 280 -50; 400 0; 500 0; 620 70; 720 70; 760 70; 760 70"
        keyTimes="0; 0.15; 0.25; 0.35; 0.45; 0.55; 0.65; 0.75; 0.86; 1"
        dur="14s"
        repeatCount="indefinite"
      />
      <g>
        <circle class="exhaust-puff" cx="-76" cy="96" r="8">
          <animate attributeName="opacity" values="0.12;0.32;0.12" dur="1.8s" repeatCount="indefinite"/>
        </circle>
        <circle class="exhaust-puff" cx="-99" cy="91" r="11">
          <animate attributeName="opacity" values="0.1;0.26;0.1" dur="1.8s" begin="0.24s" repeatCount="indefinite"/>
        </circle>
        <circle class="exhaust-puff" cx="-126" cy="99" r="14">
          <animate attributeName="opacity" values="0.08;0.2;0.08" dur="1.8s" begin="0.48s" repeatCount="indefinite"/>
        </circle>
        <rect class="exhaust-card" x="-650" y="35" width="532" height="118" rx="14">
          <animate attributeName="fill" values="#FFFDF2;#FFF7D6;#FFFDF2" dur="3.6s" repeatCount="indefinite"/>
        </rect>
        <text class="exhaust-message" x="-628" y="69">
          <tspan x="-628" dy="0">If you are interested in my research or</tspan>
          <tspan x="-628" dy="29">would like to collaborate, feel free to</tspan>
          <tspan x="-628" dy="29">reach out via email. I’m always happy to chat!</tspan>
        </text>
      </g>
      <g transform="translate(0, 87)">
        <g transform="scale(-0.08, 0.08) translate(-670.5, -512)">
            <path d="M454.697248 519.124155c-57.040854 0-93.812391-55.97739-81.728048-111.727273l49.379677-201.767274c12.084344-55.749882 68.654311-101.362461 125.695165-101.36246h458.072822c57.035564 0 110.690262 46.146956 119.20327 102.547615l34.057321 199.386383c8.518298 56.400659-31.18438 112.912427-88.219943 112.912427l-616.460264 0.010582z" fill="#FFE35F"></path><path d="M454.697248 500.981766c-21.98885 0-40.68678-8.174392-52.665306-23.015278-11.967945-14.840886-15.989005-45.226345-11.333041-66.723144l49.268568-201.296387c10.338357-47.654853 59.776233-87.526839 108.065992-87.526839h458.072821c47.750089 0 94.129843 39.893149 101.267225 87.10886l34.099649 199.73029c3.264466 21.62378-2.179838 52.554198-15.391137 67.903008-13.206008 15.354101-32.724022 23.808909-54.935089 23.808908l-616.449682 0.010582z m616.460264 36.295359c32.956821 0 62.247069-12.936174 82.452896-36.438212 20.205827-23.496747 28.62889-64.760232 23.697801-97.346692-0.052909-0.343906-34.104939-199.73029-34.104939-199.730289-9.777525-64.712614-71.305036-117.642463-137.091697-117.642464h-458.072822c-65.257573 0-129.610408 51.887548-143.430156 115.663679l-49.268569 201.296387c-7.147963 32.903912-0.55025 74.109197 18.438677 97.669434 18.994218 23.549656 47.734217 36.522866 80.918545 36.522866l616.460264 0.005291z" fill="#6E6E96"></path><path d="M189.100935 830.814515s-55.480048-0.126981-78.923887-0.290998c-23.443839-0.174599-42.459221-21.369818-42.27404-47.141639l0.804212-171.656941 0.380942-26.914649c0-50.13098 41.11534-81.749211 93.473776-93.616629l188.413122-39.305863 823.888767-0.00529c24.274505 8.629407 102.526452 10.206086 102.526452 108.145354l1.412662 230.708325c0.222216 25.777112-20.676714 46.686625-46.432663 46.533189l-47.316238-0.328033" fill="#FFE35F"></path><path d="M134.843077 671.167846l0.375652-51.681205c0-49.014607 40.20002-54.003896 91.394464-65.606771l166.852832-34.803333 823.04752-3.640118c8.354282 2.973468 23.26924 5.105688 39.088937 10.788081-17.803773-57.241907-74.939863-59.485236-94.870565-66.569709l-805.645853 0.010582-184.243917 38.438161c-51.205026 11.608166-91.399755 42.533293-91.399755 91.542608l-0.380942 25.750658-0.783049 167.858097c-0.169308 25.195116 18.417514 45.93003 41.337556 46.099338l14.475817 0.089945 0.751303-158.276334z" fill="#FFFFFF"></path><path d="M1267.030758 570.397962c0-97.939269-78.251947-99.515948-102.526451-108.134772H340.610248L152.197126 501.574343C99.838691 513.447053 58.728641 545.070574 58.728641 595.185682l-0.380942 26.914648-0.804212 171.656941c-0.17989 25.771821 18.846074 46.977622 42.27404 47.141639 23.44913 0.153435 78.923887 0.296289 78.923887 0.296289l995.947815 6.121535 47.310947 0.333325a46.136374 46.136374 0 0 0 46.437953-46.538481l-1.407371-230.713616z m-118.748255 199.465746l-43.157615-0.269834-908.516211-4.888762s-50.607158-0.111108-71.992849-0.232799c-21.385691-0.126981-38.729158-17.063051-38.570432-37.623366l0.740722-111.108241 0.354488-42.194677c0-40.014839 37.491095-65.252282 85.262347-74.733519l171.873867-31.380142 751.567885-0.005291c22.147576 6.88342 93.521393 8.147938 93.521393 86.325813l1.285681 178.947757c0.190471 20.597351-18.861947 37.284751-42.369276 37.163061z" fill="#EDCA4C"></path><path d="M189.143262 812.672126l-78.839233-0.296288c-13.253626-0.111108-24.359159-13.317116-24.258633-28.861689l0.809503-171.688686 0.375652-26.877612c0-52.411344 55.485339-70.643678 79.331283-76.045655l188.116834-39.242372a18.237624 18.237624 0 0 1-3.708899 0.386233l823.888767-0.00529c-2.07402 0-4.126878-0.354488-6.068626-1.047592 4.50782 1.603133 9.68229 2.820033 15.682135 4.237985 31.55474 7.438961 74.765264 17.623883 74.765264 86.801991l1.412662 230.824724a27.861714 27.861714 0 0 1-8.16381 20.068265 27.829969 27.829969 0 0 1-20.015356 8.216719l-47.289784-0.328034a18.147679 18.147679 0 1 0-0.253962 36.295358l47.305657 0.328034a63.823748 63.823748 0 0 0 45.956484-18.888401 63.839621 63.839621 0 0 0 18.766711-45.956484l-1.412662-230.660708c0-97.82287-71.987558-114.790685-102.738086-122.039175-4.745909-1.116373-9.227275-2.179838-11.856837-3.111031a18.147679 18.147679 0 0 0-6.073917-1.047592H350.985641c-1.248645 0-2.486708 0.126981-3.708899 0.380943l-188.413121 39.311153C91.182829 488.770441 50.951065 530.388414 50.951065 584.810288l-0.380943 26.782377-0.809503 171.699268c-0.24338 35.792726 26.80354 65.141174 60.30003 65.373972l79.00854 0.290998a18.137098 18.137098 0 1 0 0.074073-36.284777z" fill="#6E6E96"></path><path d="M461.390196 852.067934h395.841626a18.147679 18.147679 0 1 0 0-36.30065H461.390196a18.147679 18.147679 0 1 0 0 36.30065zM350.985641 451.887796h36.30065v245.083616h-36.30065z" fill="#6E6E96"></path><path d="M129.218884 764.525222s25.570768-139.657768 188.921045-139.657768c163.355568 0 202.248743 141.625971 202.248743 141.625971l-391.169788-1.968203z" fill="#EDCA4C"></path><path d="M481.908185 697.378809h367.900548v52.517161H481.908185z" fill="#EDCA4C"></path><path d="M808.55054 769.710273s35.94087-150.02787 199.291147-150.02787c197.058401 0 191.889222 151.996073 191.889223 151.996073l-391.18037-1.968203z" fill="#EDCA4C"></path><path d="M1310.955549 832.163686c0 14.2536-11.666365 25.930547-25.919965 25.930547H68.093479c-14.258891 0-25.925256-11.676947-25.925256-25.930547v-51.035718c0-14.269473 11.666365-25.935838 25.925256-25.935838h1216.931523c14.2536 0 25.919965 11.666365 25.919966 25.935838l0.010581 51.035718z" fill="#F0F0FF"></path><path d="M1292.802579 832.163686a7.883394 7.883394 0 0 1-7.777577 7.782868H68.093479a7.883394 7.883394 0 0 1-7.782868-7.782868v-51.035718c0-4.222113 3.571336-7.788159 7.782868-7.788159h1216.931523c4.211531 0 7.777577 3.566045 7.777577 7.788159v51.035718z m36.30065-51.030427c0-24.300959-19.777267-44.083517-44.078227-44.083518H68.093479c-24.30625 0-44.078226 19.782558-44.078226 44.083518v51.035718c0 24.311541 19.771976 44.078226 44.078226 44.078226h1216.931523c24.300959 0 44.078226-19.766685 44.078227-44.078226v-51.035718z" fill="#6E6E96"></path><path d="M42.162932 809.65104h1261.231966v36.290068H42.162932z" fill="#6E6E96"></path><path d="M326.150304 832.417648m-137.710728 0a137.710728 137.710728 0 1 0 275.421456 0 137.710728 137.710728 0 1 0-275.421456 0Z" fill="#F0F0FF"></path><path d="M326.150304 725.827809c58.776259 0 106.600421 47.824161 106.600421 106.589839a105.939062 105.939062 0 0 1-31.221416 75.379005 105.886153 105.886153 0 0 1-75.384296 31.210834c-58.765678 0-106.589839-47.81358-106.589839-106.589839 0-58.765678 47.81887-106.589839 106.59513-106.589839z m-168.821035 106.589839c0 93.092833 75.728202 168.821035 168.826326 168.821035 93.103415 0 168.831617-75.728202 168.831617-168.821035 0-93.098124-75.728202-168.826326-168.831617-168.826326-93.098124 0-168.826326 75.738784-168.826326 168.826326z" fill="#6E6E96"></path><path d="M320.483784 780.122703c53.443064 0 98.293757 36.708046 110.764334 86.278194 2.259201-8.95215 3.454937-18.306405 3.454937-27.962241 0-63.093608-51.136245-114.219271-114.229853-114.229853-63.088317 0-114.240435 51.136245-114.240435 114.229853 0 9.645253 1.211609 19.010091 3.465519 27.962241 12.475868-49.570148 57.331852-86.278194 110.774916-86.278194z" fill="#6E6E96"></path><path d="M323.32498 834.332942m-37.422313 0a37.422314 37.422314 0 1 0 74.844627 0 37.422314 37.422314 0 1 0-74.844627 0Z" fill="#6E6E96"></path><path d="M1020.402209 832.417648m-137.710728 0a137.710728 137.710728 0 1 0 275.421456 0 137.710728 137.710728 0 1 0-275.421456 0Z" fill="#F0F0FF"></path><path d="M1020.402209 725.827809c58.770968 0 106.600421 47.824161 106.600421 106.589839a105.939062 105.939062 0 0 1-31.221416 75.379005 105.875572 105.875572 0 0 1-75.379005 31.210834c-58.765678 0-106.589839-47.81358-106.589838-106.589839-0.010582-58.765678 47.808289-106.589839 106.589838-106.589839z m-168.831617 106.589839c0 93.092833 75.722911 168.821035 168.821036 168.821035 93.103415 0 168.831617-75.728202 168.831617-168.821035 0-93.098124-75.728202-168.826326-168.831617-168.826326-93.092833 0-168.821035 75.738784-168.821036 168.826326z" fill="#6E6E96"></path><path d="M1014.730398 780.122703c53.448355 0 98.299048 36.708046 110.769625 86.278194 2.259201-8.95215 3.449646-18.306405 3.449647-27.962241 0-63.093608-51.130954-114.229853-114.219272-114.229853-63.083026 0-114.235144 51.136245-114.235144 114.229853 0 9.645253 1.211609 19.010091 3.460228 27.962241 12.475868-49.570148 57.337143-86.278194 110.774916-86.278194z" fill="#6E6E96"></path><path d="M1017.566304 834.332942m-37.422314 0a37.422314 37.422314 0 1 0 74.844627 0 37.422314 37.422314 0 1 0-74.844627 0Z" fill="#6E6E96"></path><path d="M761.520009 458.628363h36.295358v279.908112h-36.295358zM669.040916 540.742644h51.855804v36.295358h-51.855804z" fill="#6E6E96"></path><path d="M421.449429 518.944265v129.494009l-34.168429-13.862076V520.3728z" fill="#FFFFFF"></path><path d="M514.976114 384.11706c-41.713208 0-42.676146-34.205466-33.840396-76.008618l10.179631-55.691683c11.772183-55.649356 47.289784-76.024491 91.928842-76.024491h388.090503c55.210214 0 75.89751 34.612862 82.119572 76.913357l9.354255 53.903369c6.232643 42.300494 2.867651 76.908066-38.850848 76.908066h-508.981559z" fill="#AADBF7"></path><path d="M514.976114 365.96409c-8.121483 0-13.555205-1.624297-16.168895-4.841144-3.740644-4.613637-6.756439-16.904325 0.089945-49.263278 0.100527-0.492051 10.264285-56.183734 10.264285-56.183734 8.793424-41.554482 32.358952-61.135987 74.07216-61.135986h388.101085c38.115417 0 57.892684 18.94131 64.162363 61.405821 0.084654 0.449724 9.417746 54.353093 9.417747 54.353093 3.809425 25.941129 2.634853 42.983017-3.5925 50.183888-1.169282 1.349171-4.730037 5.476049-17.375213 5.476049l-508.970977 0.005291z m508.970977 36.30065c19.422779 0 34.507045-6.073917 44.861275-18.057735 17.930754-20.766659 15.798534-53.474809 11.946781-79.648736l-9.412455-54.347802c-11.174314-75.934546-60.559282-91.965878-99.997416-91.965878h-388.101085c-58.395317 0-97.346691 32.110282-109.674415 90.415654-0.105817 0.497342-10.274867 56.183734-10.274867 56.183733-5.417849 25.618386-9.587054 58.268336 7.338435 79.146104 9.825143 12.126671 24.761265 18.279951 44.358642 18.279951l508.955105-0.005291z" fill="#6E6E96"></path><path d="M760.647015 176.392268h36.30065V384.11706h-36.30065z" fill="#6E6E96"></path><path d="M513.161346 241.115464h519.346371l-22.941207-57.517033h-467.003808z" fill="#6E6E96"></path><path d="M796.947665 241.115464h44.078226v124.848626h-44.078226z" fill="#6E6E96"></path><path d="M605.074315 282.415984h-72.596008l5.185051-38.893175h67.410957z" fill="#FFFFFF"></path><path d="M842.756005 243.522809h67.410957v38.893175h-67.410957z" fill="#FFFFFF"></path><path d="M69.220434 653.95665H139.361479v101.124372H69.220434z" fill="#FFFFFF"></path><path d="M139.361479 773.599062H69.220434a18.51804 18.51804 0 0 1-18.51804-18.51804v-101.124372a18.51804 18.51804 0 0 1 18.51804-18.51804H139.361479a18.51804 18.51804 0 0 1 18.51804 18.51804v101.124372a18.51804 18.51804 0 0 1-18.51804 18.51804z m-51.623005-37.036081h33.104965v-64.088291h-33.104965v64.088291z" fill="#6E6E96"></path><path d="M1220.455242 643.591838h59.63338v111.489184h-59.63338z" fill="#FF5F5F"></path><path d="M1280.088622 773.599062h-59.63338a18.51804 18.51804 0 0 1-18.51804-18.51804v-111.489184a18.51804 18.51804 0 0 1 18.51804-18.51804h59.63338a18.51804 18.51804 0 0 1 18.51804 18.51804v111.489184c0 10.221958-8.296082 18.51804-18.51804 18.51804z m-41.11534-37.036081h22.5973v-74.453102h-22.5973v74.453102z" fill="#6E6E96"></path><path d="M1083.802688 540.742644h51.861094v36.295358h-51.861094z" fill="#6E6E96"></path>
        </g>
      </g>
  </g>

</svg>
